<svg xmlns="http://www.w3.org/2000/svg" width="800" viewBox="0 0 600 600" height="800" version="1.0"><path fill="#ff3d00" d="M525 300c0 3.684-.09 7.363-.27 11.04-.183 3.679-.453 7.35-.812 11.015a229.923 229.923 0 0 1-1.352 10.96 227.671 227.671 0 0 1-4.308 21.657 225.531 225.531 0 0 1-6.41 21.129 226.959 226.959 0 0 1-8.45 20.398 225.916 225.916 0 0 1-4.964 9.863 223.266 223.266 0 0 1-5.446 9.61c-1.89 3.16-3.863 6.27-5.906 9.332a227.231 227.231 0 0 1-6.36 9.027 225.765 225.765 0 0 1-14.008 17.07 222.934 222.934 0 0 1-7.616 7.997 222.934 222.934 0 0 1-16.36 14.828 228.32 228.32 0 0 1-8.707 6.797 227.231 227.231 0 0 1-9.027 6.359 224.715 224.715 0 0 1-9.332 5.906 223.266 223.266 0 0 1-9.61 5.446 225.916 225.916 0 0 1-9.863 4.964 226.959 226.959 0 0 1-20.398 8.45 225.531 225.531 0 0 1-21.13 6.41 227.671 227.671 0 0 1-21.656 4.309c-3.644.538-7.296.988-10.96 1.351-3.664.36-7.336.629-11.016.812a226.057 226.057 0 0 1-22.078 0c-3.68-.183-7.352-.453-11.016-.812a229.923 229.923 0 0 1-10.96-1.352 227.671 227.671 0 0 1-21.657-4.308 225.531 225.531 0 0 1-21.129-6.41 226.959 226.959 0 0 1-20.398-8.45 225.916 225.916 0 0 1-9.863-4.964 223.266 223.266 0 0 1-9.61-5.446c-3.16-1.89-6.27-3.863-9.332-5.906a227.231 227.231 0 0 1-9.027-6.36 225.765 225.765 0 0 1-17.07-14.008 222.934 222.934 0 0 1-7.997-7.616 222.934 222.934 0 0 1-14.828-16.36 228.32 228.32 0 0 1-6.797-8.707 227.231 227.231 0 0 1-6.359-9.027 224.715 224.715 0 0 1-5.906-9.332 223.266 223.266 0 0 1-5.446-9.61 225.916 225.916 0 0 1-4.964-9.863 226.959 226.959 0 0 1-8.45-20.398 225.531 225.531 0 0 1-6.41-21.13 227.671 227.671 0 0 1-4.309-21.656c-.538-3.644-.988-7.296-1.351-10.96-.36-3.664-.629-7.336-.812-11.016a226.057 226.057 0 0 1 0-22.078c.183-3.68.453-7.352.812-11.016.363-3.664.813-7.316 1.352-10.96a227.671 227.671 0 0 1 4.308-21.657 225.531 225.531 0 0 1 6.41-21.129 226.959 226.959 0 0 1 8.45-20.398 225.916 225.916 0 0 1 4.964-9.863c1.739-3.25 3.551-6.454 5.446-9.61 1.89-3.16 3.863-6.27 5.906-9.332a227.231 227.231 0 0 1 6.36-9.027 225.765 225.765 0 0 1 14.008-17.07 222.934 222.934 0 0 1 7.616-7.997 222.934 222.934 0 0 1 16.36-14.828 228.32 228.32 0 0 1 8.707-6.797 227.231 227.231 0 0 1 9.027-6.359 224.715 224.715 0 0 1 9.332-5.906 223.266 223.266 0 0 1 9.61-5.446 225.916 225.916 0 0 1 9.863-4.964 226.959 226.959 0 0 1 20.398-8.45 225.531 225.531 0 0 1 21.13-6.41 227.671 227.671 0 0 1 21.656-4.309c3.644-.538 7.296-.988 10.96-1.351 3.664-.36 7.336-.629 11.016-.812a226.057 226.057 0 0 1 22.078 0c3.68.183 7.352.453 11.016.812 3.664.363 7.316.813 10.96 1.352a227.671 227.671 0 0 1 21.657 4.308 225.531 225.531 0 0 1 21.129 6.41 226.959 226.959 0 0 1 20.398 8.45 225.916 225.916 0 0 1 9.863 4.964c3.25 1.739 6.454 3.551 9.61 5.446 3.16 1.89 6.27 3.863 9.332 5.906a227.231 227.231 0 0 1 9.027 6.36 225.765 225.765 0 0 1 17.07 14.008 222.934 222.934 0 0 1 7.997 7.616 222.934 222.934 0 0 1 14.828 16.36 228.32 228.32 0 0 1 6.797 8.707 227.231 227.231 0 0 1 6.359 9.027 224.715 224.715 0 0 1 5.906 9.332 223.266 223.266 0 0 1 5.446 9.61 225.916 225.916 0 0 1 4.964 9.863 226.959 226.959 0 0 1 8.45 20.398 225.531 225.531 0 0 1 6.41 21.13 227.671 227.671 0 0 1 4.309 21.656c.538 3.644.988 7.296 1.351 10.96.36 3.664.629 7.336.812 11.016.18 3.676.27 7.355.27 11.039Zm0 0"/><path fill="#dd2c00" d="M300 75h-.113C394.289 106.375 462.5 195.063 462.5 300c0 104.938-68.21 193.625-162.625 225H300c124.262 0 225-100.738 225-225S424.262 75 300 75Zm0 0"/><path fill="#fff" d="M362.5 300c0-34.523-27.977-62.5-62.5-62.5-34.512 0-62.5 27.977-62.5 62.5H75c0 124.262 100.738 225 225 225s225-100.738 225-225Zm0 0"/><path fill="#cfd8dc" d="M462.5 300c0 104.938-68.21 193.625-162.625 225H300c124.262 0 225-100.738 225-225Zm0 0"/><path fill="#37474f" d="M300 87.5c117.176 0 212.5 95.324 212.5 212.5S417.176 512.5 300 512.5 87.5 417.176 87.5 300 182.824 87.5 300 87.5m0-25C168.852 62.5 62.5 168.852 62.5 300S168.852 537.5 300 537.5 537.5 431.148 537.5 300 431.148 62.5 300 62.5Zm0 0"/><path fill="#37474f" d="M75 287.5h162.5v25H75ZM362.5 287.5H525v25H362.5Zm0 0"/><path fill="#37474f" d="M300 250c27.574 0 50 22.426 50 50s-22.426 50-50 50-50-22.426-50-50 22.426-50 50-50m0-25c-41.414 0-75 33.574-75 75 0 41.414 33.586 75 75 75 41.426 0 75-33.586 75-75 0-41.426-33.574-75-75-75Zm0 0"/><path fill="#37474f" d="M325 300c0 .82-.04 1.637-.121 2.45-.078.816-.2 1.624-.36 2.429a25.216 25.216 0 0 1-1.421 4.687 24.997 24.997 0 0 1-3.773 6.293 24.169 24.169 0 0 1-1.65 1.817 24.67 24.67 0 0 1-5.89 4.371 24.478 24.478 0 0 1-4.527 1.875c-.785.238-1.578.437-2.38.598-.804.16-1.612.28-2.429.359-.812.082-1.629.121-2.449.121-.82 0-1.637-.04-2.45-.121-.816-.078-1.624-.2-2.429-.36a25.216 25.216 0 0 1-4.687-1.421 24.997 24.997 0 0 1-6.293-3.773 24.169 24.169 0 0 1-1.817-1.65 24.67 24.67 0 0 1-4.371-5.89 24.478 24.478 0 0 1-1.875-4.527 25.216 25.216 0 0 1-.598-2.38 24.282 24.282 0 0 1-.359-2.429A24.366 24.366 0 0 1 275 300c0-.82.04-1.637.121-2.45.078-.816.2-1.624.36-2.429a25.216 25.216 0 0 1 1.421-4.687 24.997 24.997 0 0 1 3.773-6.293 24.169 24.169 0 0 1 1.65-1.817 24.67 24.67 0 0 1 5.89-4.371 24.478 24.478 0 0 1 4.527-1.875 25.216 25.216 0 0 1 2.38-.598c.804-.16 1.612-.28 2.429-.359A24.366 24.366 0 0 1 300 275c.82 0 1.637.04 2.45.121.816.078 1.624.2 2.429.36a25.216 25.216 0 0 1 4.687 1.421 24.997 24.997 0 0 1 6.293 3.773c.633.52 1.239 1.067 1.817 1.65a24.67 24.67 0 0 1 4.371 5.89 24.478 24.478 0 0 1 1.875 4.527c.238.785.437 1.578.598 2.38.16.804.28 1.612.359 2.429.082.812.121 1.629.121 2.449Zm0 0"/></svg>