<svg xmlns="http://www.w3.org/2000/svg" width="50" viewBox="0 0 600 600" height="50" version="1.0"><defs><clipPath id="a"><path d="M139.766 0H460.5v410H139.766Zm0 0"/></clipPath></defs><path fill="#ffd11e" d="M277.852 426.508c-49.247 0-85.036 36.508-85.036 86.746 0 50.238 35.79 86.746 85.036 86.746 50.57 0 85.921-35.68 85.921-86.969-.992-51.726-35.46-86.523-85.921-86.523Zm0 150.883c-36.782 0-62.48-26.36-62.48-64.137 0-38.383 25.148-64.137 62.48-64.137 37.777 0 62.593 25.258 63.308 64.137 0 38.383-25.422 64.137-63.308 64.137Zm0 0"/><g clip-path="url(#a)"><path fill="#ffd11e" d="M390.023 283.234c31.489-34.742 70.696-77.921 70.696-142.996 0-64.851-44.832-140.57-171.23-140.57-73.622 0-125.239 24.816-143.989 35.46-4.633 2.59-6.781 8.106-5.238 13.18l28.18 90.333c1.101 3.472 3.75 6.175 7.113 7.332a11.421 11.421 0 0 0 10.148-1.38c19.41-13.452 50.516-22.882 75.387-22.882 32.812.66 49.41 13.621 49.41 38.437 0 22.665-18.86 47.426-45.387 79.743-37.004 43.566-54.375 89.777-51.562 137.039l.828 21.562c.219 6.067 5.238 10.863 11.305 10.863h110.238c6.234 0 11.305-5.074 11.305-11.304v-15.164c-.77-34.356 11.363-63.973 39.32-95.793Zm-20.351-11.195c-31.652 36.066-45.938 71.418-45.055 111.066v3.641h-88.125l-.387-10.918c-2.48-42.078 12.63-81.785 46.38-121.488 24.87-30.332 50.624-61.711 50.624-94.192 0-37.335-26.8-60.113-71.8-61.05-24.653 0-53.274 7.445-75.551 19.136l-21.121-67.718C186.199 39.594 229.93 22.28 289.488 22.28c109.578 0 148.676 60.938 148.676 117.957 0 56.36-34.465 94.301-64.851 127.832Zm0 0"/></g></svg>