<svg xmlns="http://www.w3.org/2000/svg" width="40" viewBox="0 0 30 30" height="40" version="1.0"><defs><clipPath id="a"><path d="M1.082 0h27.582v29.031H1.082Zm0 0"/></clipPath></defs><g clip-path="url(#a)"><path fill="#a6a6a6" d="M28.582 20.89a14.6 14.6 0 0 1-5.36 5.95 14.382 14.382 0 0 1-7.632 2.191c-4.008 0-7.633-1.636-10.262-4.285a14.666 14.666 0 0 1-4.246-10.355c0-3.48 1.207-6.688 3.234-9.204A14.463 14.463 0 0 1 12.594.074c.324-.07.644.14.71.469a.645.645 0 0 1-.05.394c-.45.91-.797 1.875-1.027 2.891a13.203 13.203 0 0 0-.348 3.067c0 3.707 1.48 7.058 3.89 9.492 2.41 2.422 5.731 3.925 9.407 3.925.476 0 .933-.023 1.383-.074.46-.043.918-.117 1.367-.21.324-.071.644.14.707.468a.593.593 0 0 1-.051.395Zm-5.996 4.919a13.4 13.4 0 0 0 4.332-4.387l-.238.031c-.504.05-1.004.078-1.504.078-4.008 0-7.633-1.64-10.258-4.285a14.644 14.644 0 0 1-4.25-10.351c0-1.149.133-2.262.387-3.336.148-.688.36-1.344.605-1.989-2.547.79-4.77 2.34-6.41 4.383a13.422 13.422 0 0 0-2.96 8.438c0 3.71 1.483 7.062 3.894 9.492 2.41 2.43 5.73 3.93 9.406 3.93 2.566 0 4.969-.731 6.996-2.004Zm0 0"/></g></svg>